<svg width="203" height="54" viewBox="0 0 203 54" fill="none" xmlns="http://www.w3.org/2000/svg">
<g clip-path="url(#clip0_1_401)">
<path fill-rule="evenodd" clip-rule="evenodd" d="M31.1 11.7179C29.2693 11.7179 27.4565 12.0775 25.7651 12.7762C24.0737 13.4748 22.5368 14.4988 21.2423 15.7898C19.9478 17.0808 18.9209 18.6133 18.2202 20.3001C17.5972 21.8001 17.243 23.396 17.1723 25.0151C17.1561 25.3857 16.9493 25.7249 16.6173 25.8904L12.1245 28.1306C11.7925 28.2961 11.5797 28.6353 11.5959 29.0059C11.6666 30.625 12.0208 32.2208 12.6439 33.7209C13.3445 35.4077 14.3714 36.9402 15.6659 38.2312C16.9604 39.5221 18.4973 40.5461 20.1887 41.2448C21.8801 41.9435 23.6929 42.3031 25.5237 42.3031C27.3544 42.3031 29.1672 41.9435 30.8586 41.2448C32.55 40.5461 34.0869 39.5221 35.3814 38.2312C36.6759 36.9402 37.7028 35.4077 38.4034 33.7209C39.0265 32.2208 39.3807 30.625 39.4514 29.0059C39.4676 28.6353 39.6744 28.2961 40.0064 28.1306L44.4992 25.8904C44.8312 25.7249 45.044 25.3857 45.0278 25.0151C44.9571 23.396 44.6029 21.8001 43.9798 20.3001C43.2792 18.6133 42.2523 17.0808 40.9578 15.7898C39.6633 14.4988 38.1264 13.4748 36.435 12.7762C34.7436 12.0775 32.9308 11.7179 31.1 11.7179ZM37.5399 22.9602C37.8126 23.6167 37.9823 24.31 38.0441 25.0157C38.0764 25.3852 37.8607 25.7249 37.5287 25.8904L33.0359 28.1306C32.7039 28.2961 32.5001 28.6358 32.4677 29.0053C32.4059 29.711 32.2363 30.4043 31.9635 31.0608C31.6133 31.9042 31.0998 32.6705 30.4525 33.316C29.8052 33.9614 29.0368 34.4735 28.1911 34.8228C27.3455 35.1721 26.439 35.3519 25.5237 35.3519C24.6083 35.3519 23.7019 35.1721 22.8562 34.8228C22.0105 34.4735 21.2421 33.9614 20.5948 33.316C19.9475 32.6705 19.4341 31.9042 19.0838 31.0608C18.8111 30.4043 18.6414 29.711 18.5796 29.0053C18.5473 28.6358 18.763 28.2961 19.095 28.1306L23.5878 25.8904C23.9198 25.7249 24.1236 25.3852 24.156 25.0157C24.2178 24.31 24.3874 23.6167 24.6601 22.9602C25.0104 22.1168 25.5239 21.3505 26.1711 20.705C26.8185 20.0596 27.5869 19.5475 28.4326 19.1982C29.2783 18.8489 30.1847 18.6691 31.1 18.6691C32.0154 18.6691 32.9219 18.8489 33.7675 19.1982C34.6132 19.5475 35.3816 20.0596 36.0289 20.705C36.6762 21.3505 37.1896 22.1168 37.5399 22.9602Z" fill="#565656"/>
<path fill-rule="evenodd" clip-rule="evenodd" d="M31.1 0.596069C27.8047 0.596069 24.5416 1.24334 21.4971 2.50093C18.4526 3.75851 15.6863 5.6018 13.3561 7.92549C11.0259 10.2492 9.17756 13.0079 7.91646 16.0439C6.73285 18.8935 6.08839 21.935 6.01364 25.015C6.00464 25.3858 5.79651 25.7249 5.46452 25.8904L0.97169 28.1306C0.639719 28.2962 0.428268 28.6353 0.437265 29.0061C0.511996 32.086 1.15647 35.1276 2.34007 37.9771C3.60115 41.0132 5.44955 43.7719 7.77969 46.0956C10.1099 48.4192 12.8762 50.2628 15.9207 51.5199C18.9652 52.7775 22.2283 53.4252 25.5237 53.4252C28.819 53.4252 32.0821 52.7775 35.1266 51.5199C38.1711 50.2628 40.9374 48.4192 43.2676 46.0956C45.5978 43.7719 47.4462 41.0132 48.7072 37.9771C49.891 35.1276 50.5353 32.086 50.6101 29.0061C50.6189 28.6353 50.8273 28.2962 51.1589 28.1306L55.6518 25.8904C55.984 25.7249 56.1953 25.3858 56.1865 25.015C56.1116 21.935 55.4674 18.8935 54.2837 16.0439C53.0226 13.0079 51.1741 10.2492 48.844 7.92549C46.5138 5.6018 43.7475 3.75851 40.703 2.50093C37.6585 1.24334 34.3954 0.596069 31.1 0.596069ZM43.6367 29.006C43.6492 28.6353 43.8567 28.2962 44.1887 28.1306L48.6815 25.8904C49.0135 25.7249 49.2258 25.3857 49.2131 25.015C49.1402 22.8481 48.677 20.7102 47.8437 18.7041C46.933 16.5113 45.598 14.5189 43.9151 12.8407C42.2322 11.1625 40.2343 9.83125 38.0355 8.92298C35.8367 8.01471 33.48 7.54723 31.1 7.54723C28.72 7.54723 26.3634 8.01471 24.1646 8.92298C21.9658 9.83125 19.9679 11.1625 18.285 12.8407C16.6021 14.5189 15.2671 16.5113 14.3564 18.7041C13.5231 20.7102 13.0597 22.8481 12.987 25.015C12.9745 25.3857 12.767 25.7249 12.435 25.8904L7.94219 28.1306C7.6102 28.2962 7.3981 28.6353 7.41058 29.006C7.48336 31.173 7.94669 33.3109 8.77997 35.317C9.69073 37.5097 11.0257 39.5021 12.7086 41.1803C14.3915 42.8586 16.3894 44.1898 18.5882 45.0981C20.787 46.0063 23.1437 46.4738 25.5237 46.4738C27.9036 46.4738 30.2603 46.0063 32.4591 45.0981C34.6579 44.1898 36.6558 42.8586 38.3387 41.1803C40.0216 39.5021 41.3566 37.5097 42.2674 35.317C43.1007 33.3109 43.5639 31.173 43.6367 29.006Z" fill="#565656"/>
<path d="M130.479 8.82764C129.736 8.82764 129.108 8.57083 128.594 8.05722C128.08 7.5436 127.823 6.91993 127.823 6.18619C127.823 5.43411 128.08 4.80587 128.594 4.30143C129.108 3.78781 129.736 3.53101 130.479 3.53101C131.222 3.53101 131.845 3.78781 132.35 4.30143C132.863 4.80587 133.12 5.43411 133.12 6.18619C133.12 6.91993 132.863 7.5436 132.35 8.05722C131.845 8.57083 131.222 8.82764 130.479 8.82764Z" fill="#565656"/>
<path d="M128.291 25.323V10.5199H132.639V25.323H128.291Z" fill="#565656"/>
<path fill-rule="evenodd" clip-rule="evenodd" d="M135.091 29.6785V10.5198H139.218V11.9919H139.272C139.532 11.7357 139.813 11.5019 140.113 11.2902C141.085 10.6115 142.204 10.2722 143.47 10.2722C144.58 10.2722 145.639 10.5611 146.648 11.1389C147.666 11.7167 148.491 12.5743 149.124 13.7116C149.757 14.8489 150.064 16.2659 150.046 17.9626C150.055 19.2467 149.876 20.3656 149.509 21.3195C149.142 22.2642 148.647 23.0484 148.023 23.672C147.4 24.2957 146.702 24.7635 145.932 25.0753C145.162 25.3872 144.382 25.5431 143.593 25.5431C142.346 25.5431 141.227 25.1945 140.236 24.4975C139.987 24.3197 139.751 24.1271 139.528 23.9197H139.439V27.1943L135.091 29.6785ZM142.575 21.9111C143.217 21.9019 143.781 21.7322 144.267 21.402C144.754 21.0719 145.134 20.6041 145.409 19.9988C145.685 19.3934 145.818 18.6872 145.808 17.8801C145.818 17.0547 145.68 16.3484 145.395 15.7614C145.121 15.1653 144.731 14.7113 144.226 14.3995C143.722 14.0784 143.144 13.9225 142.493 13.9317C141.878 13.9225 141.328 14.0738 140.842 14.3857C140.356 14.6975 139.971 15.1516 139.686 15.7477C139.402 16.3347 139.26 17.0455 139.26 17.8801C139.26 18.6872 139.402 19.3934 139.686 19.9988C139.98 20.6041 140.374 21.0719 140.869 21.402C141.365 21.7322 141.933 21.9019 142.575 21.9111Z" fill="#565656"/>
<path d="M156.763 25.543C155.882 25.543 155.039 25.3917 154.232 25.089C153.434 24.7864 152.727 24.3599 152.113 23.8096C151.499 23.2501 151.035 22.5989 150.724 21.856L154.136 20.3564C154.365 20.7875 154.708 21.1956 155.167 21.5809C155.626 21.9661 156.167 22.1586 156.791 22.1586C157.121 22.1586 157.41 22.1036 157.658 21.9936C157.905 21.8744 158.098 21.723 158.235 21.5396C158.382 21.3561 158.455 21.159 158.455 20.948C158.455 20.682 158.35 20.4527 158.139 20.2601C157.928 20.0675 157.658 19.9024 157.327 19.7649C156.997 19.6273 156.648 19.5081 156.282 19.4071C155.924 19.3063 155.594 19.2146 155.291 19.132C154.594 18.9211 153.934 18.6321 153.31 18.2653C152.696 17.8892 152.196 17.4123 151.81 16.8345C151.425 16.2567 151.233 15.555 151.233 14.7296C151.233 13.8583 151.458 13.0924 151.907 12.4321C152.365 11.7626 152.984 11.2397 153.764 10.8637C154.553 10.4877 155.452 10.2997 156.461 10.2997C157.717 10.2997 158.845 10.5886 159.845 11.1664C160.854 11.7442 161.569 12.51 161.991 13.4639L158.648 14.9084C158.474 14.6149 158.217 14.3306 157.878 14.0555C157.548 13.7803 157.125 13.6427 156.612 13.6427C156.181 13.6427 155.823 13.7528 155.539 13.9729C155.254 14.193 155.112 14.4682 155.112 14.7984C155.112 15.1285 155.254 15.3945 155.539 15.5963C155.823 15.7981 156.185 15.9723 156.626 16.1191C157.066 16.2658 157.525 16.408 158.001 16.5456C158.368 16.6465 158.795 16.7932 159.281 16.9858C159.767 17.1693 160.239 17.4215 160.698 17.7425C161.165 18.0635 161.551 18.4762 161.854 18.9806C162.165 19.4851 162.321 20.1042 162.321 20.8379C162.321 21.7643 162.064 22.5851 161.551 23.3005C161.047 24.0067 160.372 24.557 159.529 24.9514C158.694 25.3458 157.772 25.543 156.763 25.543Z" fill="#565656"/>
<path d="M179.993 25.3229V10.5198H184.135V12.4046H184.211C184.534 11.9542 184.898 11.5736 185.304 11.2627C186.129 10.6207 187.106 10.2997 188.234 10.2997C189.17 10.2997 189.963 10.529 190.615 10.9875C191.117 11.3294 191.526 11.788 191.843 12.3633H191.921C192.389 11.7658 192.959 11.2981 193.627 10.96C194.498 10.5198 195.448 10.2997 196.475 10.2997C197.456 10.2997 198.263 10.4739 198.896 10.8224C199.529 11.1618 200.024 11.6112 200.382 12.1707C200.74 12.721 200.992 13.3263 201.139 13.9867C201.286 14.6379 201.359 15.2707 201.359 15.8852V25.3229H196.984V16.4218C196.984 15.6147 196.815 14.9956 196.475 14.5645C196.145 14.1243 195.659 13.9041 195.017 13.9041C194.595 13.9041 194.219 14.0004 193.888 14.193C193.568 14.3765 193.311 14.6562 193.118 15.0323C192.935 15.4083 192.843 15.8715 192.843 16.4218V25.3229H188.496V16.4218C188.496 15.6147 188.326 14.9956 187.987 14.5645C187.647 14.1243 187.157 13.9041 186.514 13.9041C185.891 13.9041 185.373 14.1197 184.96 14.5507C184.548 14.9726 184.341 15.6055 184.341 16.4493V25.3229H179.993Z" fill="#565656"/>
<path d="M166.576 24.8965C167.411 25.3276 168.337 25.5431 169.355 25.5431C170.557 25.5431 171.621 25.2496 172.547 24.6626C173.016 24.361 173.442 24.017 173.826 23.6308H173.937C174.068 23.9317 174.26 24.1977 174.514 24.4288C175.019 24.8874 175.817 25.2588 176.908 25.5431L178.449 21.9111C177.972 21.7368 177.655 21.5305 177.5 21.2921C177.344 21.0536 177.266 20.6684 177.266 20.1364V10.5199H172.918V19.2421C172.918 19.7833 172.813 20.251 172.602 20.6454C172.4 21.0307 172.116 21.3287 171.749 21.5397C171.391 21.7506 170.974 21.8561 170.497 21.8561C169.855 21.8561 169.309 21.636 168.86 21.1957C168.42 20.7463 168.199 20.0951 168.199 19.2421V10.5199H163.852V19.82C163.852 21.0673 164.095 22.1175 164.581 22.9705C165.077 23.8142 165.741 24.4563 166.576 24.8965Z" fill="#565656"/>
<path fill-rule="evenodd" clip-rule="evenodd" d="M118.877 25.543C117.455 25.543 116.158 25.2174 114.984 24.5662C113.819 23.915 112.888 23.0162 112.191 21.8698C111.503 20.7233 111.159 19.4025 111.159 17.9076C111.159 16.4126 111.503 15.0919 112.191 13.9454C112.888 12.7989 113.819 11.9047 114.984 11.2627C116.158 10.6207 117.455 10.2997 118.877 10.2997C120.326 10.2997 121.633 10.6207 122.798 11.2627C123.963 11.9047 124.885 12.7989 125.563 13.9454C126.251 15.0919 126.595 16.4126 126.595 17.9076C126.595 19.4025 126.251 20.7233 125.563 21.8698C124.885 23.0162 123.958 23.915 122.784 24.5662C121.619 25.2174 120.317 25.543 118.877 25.543ZM118.877 21.8285C119.556 21.8285 120.166 21.6634 120.707 21.3332C121.248 21.003 121.674 20.5444 121.986 19.9574C122.298 19.3705 122.454 18.6872 122.454 17.9076C122.454 17.1555 122.303 16.4859 122 15.899C121.697 15.312 121.28 14.8534 120.748 14.5232C120.216 14.1839 119.602 14.0142 118.905 14.0142C118.217 14.0142 117.598 14.1793 117.047 14.5095C116.506 14.8305 116.08 15.2845 115.768 15.8715C115.456 16.4585 115.3 17.1372 115.3 17.9076C115.3 18.6872 115.456 19.3705 115.768 19.9574C116.089 20.5444 116.52 21.003 117.061 21.3332C117.602 21.6634 118.208 21.8285 118.877 21.8285Z" fill="#565656"/>
<path fill-rule="evenodd" clip-rule="evenodd" d="M101.677 31.3213C100.447 31.3213 99.3193 31.1699 98.2921 30.8673C97.2742 30.5738 96.4715 30.2711 95.8845 29.9593L97.3153 26.5474C97.8289 26.8592 98.4252 27.1252 99.1036 27.3453C99.7914 27.5746 100.488 27.6893 101.195 27.6893C101.8 27.6893 102.428 27.5884 103.079 27.3866C103.731 27.1849 104.286 26.8638 104.744 26.4236C105.203 25.9925 105.432 25.4239 105.432 24.7176V23.2869H105.366C105.097 23.5524 104.807 23.7955 104.497 24.016C103.515 24.7039 102.396 25.0478 101.14 25.0478C100.36 25.0478 99.5854 24.9011 98.815 24.6076C98.0446 24.3049 97.3427 23.8509 96.7097 23.2456C96.086 22.6311 95.5866 21.8653 95.2104 20.9481C94.8343 20.0309 94.6464 18.9532 94.6464 17.7151C94.6464 16.0642 94.9673 14.693 95.6091 13.6016C96.2606 12.501 97.0951 11.6755 98.1131 11.1252C99.131 10.5658 100.191 10.286 101.291 10.286C102.566 10.286 103.68 10.6116 104.634 11.2628C104.94 11.4698 105.225 11.6991 105.488 11.9507H105.57V10.5061H109.518V24.47C109.518 25.5981 109.326 26.5887 108.941 27.4417C108.555 28.2946 108.009 29.01 107.303 29.5878C106.606 30.1656 105.781 30.5967 104.827 30.881C103.873 31.1745 102.823 31.3213 101.677 31.3213ZM102.213 21.5122C102.873 21.5122 103.456 21.3471 103.96 21.0169C104.465 20.6867 104.863 20.2281 105.157 19.6411C105.45 19.0449 105.597 18.3571 105.597 17.5775C105.597 16.7887 105.455 16.1146 105.171 15.5552C104.886 14.9865 104.497 14.5508 104.002 14.2482C103.506 13.9455 102.933 13.7942 102.282 13.7942C101.631 13.7942 101.048 13.9501 100.534 14.2619C100.021 14.5646 99.6172 15.0003 99.3237 15.5689C99.0395 16.1375 98.8972 16.8071 98.8972 17.5775C98.8972 18.3479 99.0395 19.0312 99.3237 19.6274C99.6079 20.2144 99.9978 20.6775 100.493 21.0169C100.988 21.3471 101.562 21.5122 102.213 21.5122Z" fill="#565656"/>
<path fill-rule="evenodd" clip-rule="evenodd" d="M85.824 25.543C84.402 25.543 83.1043 25.2174 81.9303 24.5662C80.7656 23.915 79.8348 23.0162 79.1377 21.8698C78.45 20.7233 78.1061 19.4025 78.1061 17.9076C78.1061 16.4126 78.45 15.0919 79.1377 13.9454C79.8348 12.7989 80.7656 11.9047 81.9303 11.2627C83.1043 10.6207 84.402 10.2997 85.824 10.2997C87.2729 10.2997 88.5799 10.6207 89.7446 11.2627C90.9098 11.9047 91.8313 12.7989 92.5098 13.9454C93.198 15.0919 93.5419 16.4126 93.5419 17.9076C93.5419 19.4025 93.198 20.7233 92.5098 21.8698C91.8313 23.0162 90.9049 23.915 89.7309 24.5662C88.5662 25.2174 87.2636 25.543 85.824 25.543ZM85.824 21.8285C86.5025 21.8285 87.1124 21.6634 87.6534 21.3332C88.1949 21.003 88.621 20.5444 88.9331 19.9574C89.2447 19.3705 89.4007 18.6872 89.4007 17.9076C89.4007 17.1555 89.2496 16.4859 88.9468 15.899C88.644 15.312 88.2267 14.8534 87.695 14.5232C87.1628 14.1839 86.5484 14.0142 85.8514 14.0142C85.1636 14.0142 84.5444 14.1793 83.9941 14.5095C83.4531 14.8305 83.0265 15.2845 82.7144 15.8715C82.4028 16.4585 82.2468 17.1372 82.2468 17.9076C82.2468 18.6872 82.4028 19.3705 82.7144 19.9574C83.0358 20.5444 83.4667 21.003 84.0078 21.3332C84.5488 21.6634 85.1543 21.8285 85.824 21.8285Z" fill="#565656"/>
<path d="M66.3531 25.3229V5.04431H70.8656V21.3057H78.1707V25.3229H66.3531Z" fill="#565656"/>
<path fill-rule="evenodd" clip-rule="evenodd" d="M135.097 32.6102V36.6775H134.973C134.794 36.5214 134.606 36.3747 134.409 36.2373C133.446 35.5586 132.336 35.2193 131.08 35.2193C129.97 35.2193 128.906 35.5082 127.888 36.086C126.87 36.6638 126.044 37.5213 125.412 38.6586C124.779 39.7959 124.476 41.213 124.504 42.9097C124.485 44.1937 124.66 45.3127 125.026 46.2665C125.393 47.2112 125.889 47.9954 126.513 48.6191C127.136 49.2428 127.833 49.7106 128.604 50.0222C129.374 50.3343 130.153 50.4903 130.942 50.4903C132.19 50.4903 133.308 50.1415 134.299 49.4445C134.795 49.0906 135.24 48.6778 135.633 48.2064H135.768C135.872 48.472 136.028 48.7242 136.239 48.963C136.523 49.2655 136.899 49.5452 137.367 49.8021C137.844 50.0501 138.422 50.279 139.1 50.4903L140.628 46.8581C140.205 46.7022 139.903 46.5142 139.72 46.2941C139.536 46.0739 139.444 45.6933 139.444 45.1522V30.126L135.097 32.6102ZM133.666 46.3491C133.171 46.6793 132.603 46.849 131.96 46.8581C131.327 46.849 130.763 46.6793 130.268 46.3491C129.773 46.0189 129.388 45.5511 129.112 44.9458C128.847 44.3405 128.718 43.6343 128.727 42.8272C128.718 42.0017 128.856 41.2955 129.14 40.7085C129.424 40.1124 129.814 39.6584 130.309 39.3465C130.814 39.0255 131.392 38.8696 132.043 38.8788C132.657 38.8696 133.208 39.0209 133.694 39.3327C134.18 39.6446 134.565 40.0986 134.849 40.6947C135.134 41.2817 135.281 41.9925 135.289 42.8272C135.281 43.6343 135.134 44.3405 134.849 44.9458C134.565 45.5511 134.171 46.0189 133.666 46.3491Z" fill="white"/>
<path d="M189.065 50.2701V35.4668H193.275V37.4066H193.341C193.458 37.2314 193.587 37.0663 193.729 36.9114C194.243 36.3611 194.857 35.9484 195.573 35.6732C196.288 35.3889 197.054 35.2467 197.87 35.2467C198.86 35.2467 199.713 35.476 200.429 35.9346C201.144 36.3931 201.694 37.0214 202.08 37.8194C202.465 38.6173 202.658 39.5391 202.658 40.5846V50.2701H198.31V41.5339C198.31 40.6443 198.099 39.9793 197.677 39.5391C197.255 39.0896 196.682 38.8649 195.958 38.8649C195.481 38.8649 195.05 38.9704 194.664 39.1813C194.279 39.3831 193.972 39.6858 193.743 40.0894C193.523 40.4837 193.413 40.979 193.413 41.5752V50.2701H189.065Z" fill="white"/>
<path fill-rule="evenodd" clip-rule="evenodd" d="M180.129 50.4902C178.707 50.4902 177.409 50.1645 176.235 49.5134C175.071 48.8621 174.14 47.9633 173.443 46.8168C172.755 45.6703 172.411 44.3496 172.411 42.8546C172.411 41.3596 172.755 40.0389 173.443 38.8924C174.14 37.746 175.071 36.8517 176.235 36.2097C177.409 35.5677 178.707 35.2467 180.129 35.2467C181.578 35.2467 182.885 35.5677 184.05 36.2097C185.214 36.8517 186.136 37.746 186.815 38.8924C187.503 40.0389 187.847 41.3596 187.847 42.8546C187.847 44.3496 187.503 45.6703 186.815 46.8168C186.136 47.9633 185.21 48.8621 184.036 49.5134C182.871 50.1645 181.569 50.4902 180.129 50.4902ZM180.129 46.7755C180.807 46.7755 181.417 46.6104 181.958 46.2802C182.499 45.95 182.926 45.4915 183.238 44.9045C183.55 44.3175 183.706 43.6342 183.706 42.8546C183.706 42.1025 183.555 41.433 183.252 40.846C182.949 40.259 182.532 39.8005 182 39.4703C181.468 39.1309 180.853 38.9612 180.156 38.9612C179.469 38.9612 178.849 39.1263 178.299 39.4565C177.758 39.7775 177.331 40.2315 177.019 40.8185C176.708 41.4055 176.552 42.0842 176.552 42.8546C176.552 43.6342 176.708 44.3175 177.019 44.9045C177.341 45.4915 177.772 45.95 178.313 46.2802C178.854 46.6104 179.459 46.7755 180.129 46.7755Z" fill="white"/>
<path d="M166.79 50.2701V35.4668H171.137V50.2701H166.79Z" fill="white"/>
<path d="M167.092 33.0042C167.606 33.5179 168.235 33.7747 168.978 33.7747C169.72 33.7747 170.344 33.5179 170.849 33.0042C171.362 32.4906 171.619 31.867 171.619 31.1332C171.619 30.3811 171.362 29.7529 170.849 29.2484C170.344 28.7348 169.72 28.478 168.978 28.478C168.235 28.478 167.606 28.7348 167.092 29.2484C166.579 29.7529 166.322 30.3811 166.322 31.1332C166.322 31.867 166.579 32.4906 167.092 33.0042Z" fill="white"/>
<path d="M158.803 48.9768C159.693 49.9855 161.05 50.4903 162.875 50.4903C163.435 50.4903 163.985 50.4394 164.526 50.3387C165.076 50.2379 165.558 50.0867 165.971 49.8847L164.567 46.4592C164.411 46.5417 164.232 46.6105 164.031 46.6655C163.829 46.7205 163.623 46.7481 163.412 46.7481C162.963 46.7481 162.581 46.6105 162.27 46.3353C161.967 46.051 161.816 45.5924 161.816 44.9596V39.0713H165.242V35.4669H161.816V31.202H157.468V35.4669H154.992V39.0713H157.468V45.0696C157.468 46.6563 157.913 47.9587 158.803 48.9768Z" fill="white"/>
<path fill-rule="evenodd" clip-rule="evenodd" d="M143.621 49.8847C144.382 50.2882 145.262 50.4902 146.262 50.4902C147.418 50.4902 148.436 50.2608 149.317 49.802C150.028 49.4351 150.549 49.027 150.879 48.5777H150.946C151.075 48.7979 151.247 49.018 151.462 49.2381C151.893 49.6782 152.536 50.0407 153.389 50.3249L153.897 50.4902L155.425 46.8581L155.094 46.748C154.774 46.6471 154.549 46.4682 154.42 46.2114C154.301 45.9455 154.241 45.5603 154.241 45.0558V40.5984C154.241 40.0664 154.177 39.4932 154.049 38.8787C153.93 38.255 153.673 37.6726 153.279 37.1315C152.884 36.5812 152.279 36.1318 151.462 35.7833C150.646 35.4255 149.545 35.2467 148.161 35.2467C147.271 35.2467 146.436 35.3201 145.657 35.4668C144.886 35.6044 144.198 35.7787 143.593 35.9896C142.997 36.2006 142.515 36.4115 142.148 36.6225L143.593 39.8967C143.932 39.6766 144.336 39.484 144.804 39.3189C145.272 39.1446 145.758 39.0117 146.262 38.92C146.767 38.8191 147.239 38.7686 147.679 38.7686C148.064 38.7686 148.408 38.8145 148.711 38.9062C149.014 38.9888 149.271 39.1126 149.481 39.2776C149.692 39.4427 149.848 39.6445 149.949 39.883C150.059 40.1123 150.114 40.3691 150.114 40.6534V41.3963H147.321C146.037 41.3963 144.937 41.5935 144.019 41.9879C143.112 42.3823 142.415 42.9234 141.928 43.6113C141.451 44.2991 141.213 45.0879 141.213 45.9776C141.213 46.8214 141.424 47.5826 141.846 48.2613C142.277 48.94 142.868 49.4811 143.621 49.8847ZM147.844 44.1203H150.321V45.0421C150.321 45.5832 150.146 46.0143 149.798 46.3352C149.458 46.6563 149.055 46.8855 148.587 47.0231C148.12 47.1607 147.711 47.2295 147.363 47.2295C146.987 47.2295 146.647 47.1699 146.345 47.0506C146.051 46.9222 145.822 46.748 145.657 46.5279C145.492 46.2986 145.409 46.0234 145.409 45.7024C145.409 45.1613 145.616 44.7623 146.028 44.5055C146.45 44.2487 147.056 44.1203 147.844 44.1203Z" fill="white"/>
<path d="M109.913 50.2701V35.4668H114.123V37.4066H114.189C114.306 37.2314 114.435 37.0663 114.577 36.9114C115.091 36.3611 115.705 35.9484 116.42 35.6732C117.136 35.3889 117.901 35.2467 118.718 35.2467C119.708 35.2467 120.561 35.476 121.277 35.9346C121.992 36.3931 122.543 37.0214 122.928 37.8194C123.313 38.6173 123.506 39.5391 123.506 40.5846V50.2701H119.158V41.5339C119.158 40.6443 118.947 39.9793 118.525 39.5391C118.103 39.0896 117.53 38.8649 116.806 38.8649C116.329 38.8649 115.898 38.9704 115.512 39.1813C115.127 39.3831 114.82 39.6858 114.591 40.0894C114.371 40.4837 114.261 40.979 114.261 41.5752V50.2701H109.913Z" fill="white"/>
<path d="M99.6838 50.4902C98.6653 50.4902 97.7394 50.2745 96.9044 49.8436C96.0699 49.4033 95.4051 48.7611 94.9096 47.9174C94.4234 47.0644 94.1808 46.0142 94.1808 44.7669V35.4668H98.5279V44.189C98.5279 45.042 98.748 45.6932 99.1883 46.1426C99.6378 46.5829 100.183 46.803 100.825 46.803C101.302 46.803 101.72 46.6975 102.077 46.4866C102.444 46.2756 102.729 45.9776 102.93 45.5923C103.141 45.1979 103.247 44.7302 103.247 44.189V35.4668H107.594V45.0833C107.594 45.6153 107.672 46.0005 107.828 46.239C107.984 46.4774 108.3 46.6837 108.777 46.858L107.236 50.4902C106.145 50.2055 105.347 49.8343 104.842 49.3754C104.589 49.1446 104.396 48.8786 104.265 48.5777H104.155C103.771 48.9639 103.344 49.3079 102.876 49.6097C101.949 50.1967 100.885 50.4902 99.6838 50.4902Z" fill="white"/>
<path fill-rule="evenodd" clip-rule="evenodd" d="M85.3407 50.4902C83.9187 50.4902 82.621 50.1645 81.447 49.5134C80.2823 48.8621 79.3515 47.9633 78.6544 46.8168C77.9667 45.6703 77.6223 44.3496 77.6223 42.8546C77.6223 41.3596 77.9667 40.0389 78.6544 38.8924C79.3515 37.746 80.2823 36.8517 81.447 36.2097C82.621 35.5677 83.9187 35.2467 85.3407 35.2467C86.7896 35.2467 88.0966 35.5677 89.2613 36.2097C90.426 36.8517 91.348 37.746 92.0265 38.8924C92.7147 40.0389 93.0586 41.3596 93.0586 42.8546C93.0586 44.3496 92.7147 45.6703 92.0265 46.8168C91.348 47.9633 90.4216 48.8621 89.2476 49.5134C88.0829 50.1645 86.7803 50.4902 85.3407 50.4902ZM85.3407 46.7755C86.0192 46.7755 86.6292 46.6104 87.1702 46.2802C87.7112 45.95 88.1377 45.4915 88.4498 44.9045C88.7614 44.3175 88.9174 43.6342 88.9174 42.8546C88.9174 42.1025 88.7663 41.433 88.4635 40.846C88.1607 40.259 87.7434 39.8005 87.2117 39.4703C86.6795 39.1309 86.0652 38.9612 85.3681 38.9612C84.6804 38.9612 84.0611 39.1263 83.5108 39.4565C82.9698 39.7775 82.5432 40.2315 82.2311 40.8185C81.9196 41.4055 81.7635 42.0842 81.7635 42.8546C81.7635 43.6342 81.9196 44.3175 82.2311 44.9045C82.5525 45.4915 82.9835 45.95 83.5245 46.2802C84.0655 46.6104 84.6711 46.7755 85.3407 46.7755Z" fill="white"/>
<path d="M66.3199 50.2701V29.9913H78.1374V34.0085H70.8323V38.6723H76.913V42.6895H70.8323V50.2701H66.3199Z" fill="white"/>
<path d="M56.1865 25.054H49.2136C49.2106 25.4094 49.0018 25.7308 48.6816 25.8905L44.1887 28.1307C43.8684 28.2904 43.664 28.6118 43.6388 28.9672H50.6116C50.6341 28.6117 50.839 28.2904 51.1594 28.1307L55.6523 25.8905C55.9722 25.7308 56.1806 25.4095 56.1865 25.054Z" fill="white"/>
<path d="M0.43721 28.9672H7.41019C7.41322 28.6118 7.62194 28.2904 7.94224 28.1307L12.4351 25.8905C12.7554 25.7308 12.9599 25.4094 12.985 25.054H6.01203C5.98997 25.4095 5.78492 25.7308 5.46462 25.8905L0.971771 28.1307C0.651456 28.2904 0.443346 28.6117 0.43721 28.9672Z" fill="white"/>
<path d="M17.17 25.054C17.1416 25.4093 16.9377 25.7308 16.6174 25.8905L12.1245 28.1307C11.8042 28.2904 11.5948 28.6119 11.5951 28.9672H18.5772C18.5624 28.6126 18.7745 28.2905 19.095 28.1307L23.5879 25.8905C23.9084 25.7307 24.1095 25.4085 24.1521 25.054H17.17Z" fill="white"/>
<path d="M38.0467 25.054C38.0615 25.4085 37.8493 25.7307 37.5288 25.8905L33.036 28.1307C32.7155 28.2905 32.5144 28.6126 32.4718 28.9672H39.4539C39.4823 28.6119 39.6861 28.2904 40.0065 28.1307L44.4993 25.8905C44.8197 25.7308 45.029 25.4093 45.0287 25.054H38.0467Z" fill="white"/>
</g>
<defs>
<clipPath id="clip0_1_401">
<rect width="203" height="53.3181" fill="white" transform="translate(0 0.340942)"/>
</clipPath>
</defs>
</svg>
